<svg width="12" height="10" viewBox="0 0 12 10" fill="current-color" xmlns="http://www.w3.org/2000/svg">
<path fill-rule="evenodd" clip-rule="evenodd" d="M11.025 4.46755L7.27499 0.717554C7.13999 0.575054 6.95249 0.492554 6.74249 0.492554C6.32999 0.492554 5.99249 0.830054 5.99249 1.24255C5.99249 1.45255 6.07499 1.64005 6.20999 1.77505L8.67749 4.24255H1.49249C1.07999 4.24255 0.742493 4.58005 0.742493 4.99255C0.742493 5.40505 1.07999 5.74255 1.49249 5.74255H8.68499L6.21749 8.21005C6.08249 8.34505 5.99999 8.53255 5.99999 8.74255C5.99999 9.15505 6.33749 9.49255 6.74999 9.49255C6.95999 9.49255 7.14749 9.41005 7.28249 9.27505L11.0325 5.52505C11.1675 5.39005 11.25 5.20255 11.25 4.99255C11.25 4.78255 11.16 4.60255 11.025 4.46755Z" />
</svg>
