<svg width="12" height="12" viewBox="0 0 12 12" fill="current-color" xmlns="http://www.w3.org/2000/svg">
<path d="M11.855 0.145007C11.7875 0.0778434 11.7023 0.031342 11.6093 0.0109701C11.5163 -0.00940182 11.4194 -0.0027974 11.33 0.0300069L0.33 4.03001C0.235134 4.06599 0.15346 4.12998 0.0958259 4.21348C0.0381915 4.29699 0.00732422 4.39605 0.00732422 4.49751C0.00732422 4.59897 0.0381915 4.69803 0.0958259 4.78153C0.15346 4.86503 0.235134 4.92902 0.33 4.96501L5.13 6.88501L7.05 11.685C7.08607 11.7757 7.14791 11.8539 7.22787 11.9098C7.30783 11.9658 7.40243 11.9972 7.5 12C7.60104 11.9979 7.69909 11.9653 7.7812 11.9064C7.86332 11.8475 7.92566 11.7651 7.96 11.67L11.96 0.670007C11.9941 0.581545 12.0023 0.485222 11.9837 0.392269C11.9651 0.299315 11.9205 0.213562 11.855 0.145007ZM7.5 10.1L6.105 6.60001L8.5 4.20501L7.795 3.50001L5.38 5.91501L1.9 4.50001L10.665 1.33501L7.5 10.1Z" />
</svg>
